<svg width="137" height="40" viewBox="0 0 137 40" fill="none" xmlns="http://www.w3.org/2000/svg">
<path d="M58.0989 14.3843L59.5247 14.7452C59.2258 15.9189 58.6869 16.8151 57.9079 17.4339C57.1337 18.0477 56.1857 18.3547 55.0637 18.3547C53.9025 18.3547 52.9569 18.1189 52.2268 17.6475C51.5017 17.1712 50.9481 16.4836 50.5659 15.585C50.1886 14.6863 50 13.7213 50 12.69C50 11.5655 50.2131 10.5858 50.6394 9.75094C51.0706 8.91119 51.6805 8.27524 52.4694 7.84309C53.2631 7.40603 54.1352 7.1875 55.0857 7.1875C56.1636 7.1875 57.07 7.4625 57.805 8.01251C58.5399 8.56252 59.0519 9.33597 59.341 10.3329L57.9373 10.6643C57.6874 9.87862 57.3248 9.30651 56.8496 8.94802C56.3743 8.58953 55.7766 8.41029 55.0563 8.41029C54.2283 8.41029 53.535 8.60918 52.9765 9.00695C52.4228 9.40473 52.0333 9.94 51.8079 10.6128C51.5826 11.2807 51.4699 11.9706 51.4699 12.6827C51.4699 13.601 51.6022 14.4039 51.8667 15.0914C52.1362 15.774 52.5527 16.2848 53.1161 16.6236C53.6796 16.9624 54.2896 17.1319 54.9461 17.1319C55.7447 17.1319 56.4209 16.9011 56.9745 16.4394C57.5281 15.9778 57.903 15.2928 58.0989 14.3843Z" fill="#2E384D"/>
<path d="M62.3811 8.89646V7.37165H63.704V8.89646H62.3811ZM62.3811 18.1705V10.3476H63.704V18.1705H62.3811Z" fill="#2E384D"/>
<path d="M69.8676 16.9845L70.0587 18.1558C69.6864 18.2343 69.3532 18.2736 69.0592 18.2736C68.5791 18.2736 68.2067 18.1975 67.9421 18.0453C67.6776 17.893 67.4914 17.6942 67.3836 17.4486C67.2758 17.1982 67.2219 16.6752 67.2219 15.8796V11.3789H66.2518V10.3476H67.2219V8.41029L68.5374 7.61474V10.3476H69.8676V11.3789H68.5374V15.9533C68.5374 16.3314 68.5595 16.5745 68.6036 16.6825C68.6526 16.7906 68.7285 16.8765 68.8314 16.9403C68.9392 17.0042 69.0911 17.0361 69.2871 17.0361C69.434 17.0361 69.6276 17.0189 69.8676 16.9845Z" fill="#2E384D"/>
<path d="M72.364 21.1833L72.217 19.9384C72.5061 20.017 72.7584 20.0562 72.974 20.0562C73.2679 20.0562 73.5031 20.0071 73.6795 19.9089C73.8559 19.8107 74.0004 19.6732 74.1131 19.4964C74.1964 19.3638 74.3311 19.0348 74.5173 18.5093C74.5418 18.4357 74.581 18.3276 74.6349 18.1852L71.6731 10.3476H73.0989L74.7231 14.8778C74.9338 15.4524 75.1224 16.0564 75.289 16.6899C75.4409 16.081 75.6222 15.4867 75.8328 14.9073L77.5011 10.3476H78.824L75.8549 18.3031C75.5364 19.1625 75.289 19.7542 75.1126 20.0783C74.8774 20.5154 74.608 20.8346 74.3042 21.0359C74.0004 21.2422 73.6378 21.3453 73.2165 21.3453C72.9617 21.3453 72.6775 21.2913 72.364 21.1833Z" fill="#2E384D"/>
<path d="M56.174 22.8773H50.3642V33.2565H53.6905V29.9074H56.174C58.1307 29.9074 59.4853 28.444 59.4853 26.4829V26.2868C59.4853 24.3256 58.1307 22.8773 56.174 22.8773ZM53.6905 25.3363H55.0602C55.7827 25.3363 56.1138 25.7286 56.1138 26.3471V26.4678C56.1138 27.0863 55.7676 27.4785 55.0602 27.4785H53.6905V25.3363Z" fill="#2E384D"/>
<path d="M65.3551 25.11C62.6458 25.11 60.8848 26.4829 60.8848 29.2738C60.8848 32.1401 62.6759 33.4375 65.5357 33.4375C68.3954 33.4375 69.8404 32.2608 69.8404 30.36H66.9354C66.9354 31.0087 66.5441 31.5216 65.4755 31.5216C64.3316 31.5216 63.88 30.888 63.88 29.7867H69.8404V29.2738C69.8404 26.4074 68.2148 25.11 65.3551 25.11ZM65.4755 27.026C66.3183 27.026 66.815 27.5389 66.815 28.3686H63.8951C64.0004 27.5389 64.467 27.026 65.4755 27.026Z" fill="#2E384D"/>
<path d="M76.7438 25.095C75.7956 25.095 74.9377 25.5475 74.5614 26.498L74.3657 25.2911H71.9123V33.2565H74.9076V29.7113C74.9076 28.5044 75.3742 27.7953 76.6686 27.7953H77.6319V25.276C77.6319 25.276 77.3007 25.095 76.7438 25.095Z" fill="#2E384D"/>
<path d="M82.4634 22.1381C80.7475 22.1381 79.5585 22.7868 79.5585 24.9592V25.2911H78.4447V27.3277H79.5585V33.2565H82.5537V27.3277H84.0889V25.2911H82.5537V24.9743C82.5537 24.4161 82.7343 24.1747 83.3966 24.1747H84.0889V22.4097C83.6826 22.2588 82.8999 22.1381 82.4634 22.1381Z" fill="#2E384D"/>
<path d="M89.5637 25.11C86.8544 25.11 85.0934 26.4829 85.0934 29.2738C85.0934 32.0647 86.8544 33.4375 89.5637 33.4375C92.2729 33.4375 94.049 32.0647 94.049 29.2738C94.049 26.4829 92.2729 25.11 89.5637 25.11ZM89.5637 27.1467C90.6173 27.1467 91.0538 27.7953 91.0538 28.8514V29.7113C91.0538 30.7673 90.6173 31.4009 89.5637 31.4009C88.5101 31.4009 88.0887 30.7673 88.0887 29.7113V28.8514C88.0887 27.7953 88.5101 27.1467 89.5637 27.1467Z" fill="#2E384D"/>
<path d="M100.952 25.095C100.004 25.095 99.1463 25.5475 98.77 26.498L98.5743 25.2911H96.121V33.2565H99.1162V29.7113C99.1162 28.5044 99.5828 27.7953 100.877 27.7953H101.841V25.276C101.841 25.276 101.509 25.095 100.952 25.095Z" fill="#2E384D"/>
<path d="M114.737 25.11C113.668 25.11 112.629 25.6531 112.012 26.4829C111.621 25.6079 110.823 25.11 109.604 25.11C108.505 25.11 107.437 25.6381 106.835 26.4829L106.639 25.2911H104.186V33.2565H107.181V28.5798C107.181 27.901 107.647 27.3277 108.37 27.3277C108.987 27.3277 109.318 27.7953 109.318 28.4591V33.2565H112.313V28.5798C112.313 27.901 112.78 27.3277 113.502 27.3277C114.12 27.3277 114.451 27.7953 114.451 28.4591V33.2565H117.446V28.0971C117.446 26.2113 116.573 25.11 114.737 25.11Z" fill="#2E384D"/>
<path d="M123.973 25.11C121.264 25.11 119.503 26.4829 119.503 29.2738C119.503 32.1401 121.294 33.4375 124.154 33.4375C127.014 33.4375 128.459 32.2608 128.459 30.36H125.554C125.554 31.0087 125.162 31.5216 124.094 31.5216C122.95 31.5216 122.498 30.888 122.498 29.7867H128.459V29.2738C128.459 26.4074 126.833 25.11 123.973 25.11ZM124.094 27.026C124.936 27.026 125.433 27.5389 125.433 28.3686H122.513C122.619 27.5389 123.085 27.026 124.094 27.026Z" fill="#2E384D"/>
<path d="M135.362 25.095C134.414 25.095 133.556 25.5475 133.18 26.498L132.984 25.2911H130.53V33.2565H133.526V29.7113C133.526 28.5044 133.992 27.7953 135.287 27.7953H136.25V25.276C136.25 25.276 135.919 25.095 135.362 25.095Z" fill="#2E384D"/>
<path d="M0 10C0 4.47715 4.47715 0 10 0H20V40H4C1.79086 40 0 38.2091 0 36V10Z" fill="#2E5BFF"/>
<path d="M20 0H27.4C29.8164 0 31.0246 0 32.0279 0.207772C35.9325 1.01639 38.9836 4.06746 39.7922 7.97213C40 8.97542 40 10.1836 40 12.6V27.4C40 29.8164 40 31.0246 39.7922 32.0279C38.9836 35.9325 35.9325 38.9836 32.0279 39.7922C31.0246 40 29.8164 40 27.4 40H20V0Z" fill="#5DC9F7"/>
<rect x="8" y="24" width="3" height="9" rx="1.5" fill="white"/>
<rect x="14" y="27" width="3" height="6" rx="1.5" fill="white"/>
<path d="M7.69314 16.8463C10.9935 14.0327 16.5552 9.51064 18.946 7.72831C19.5744 7.25987 20.3922 7.31501 21.0033 7.8058L32.2521 16.8404C32.7248 17.22 32.9997 17.7935 32.9997 18.3997V30.9997C32.9997 32.1043 32.1043 32.9997 30.9997 32.9997H21.3905C20.2859 32.9997 19.3905 32.1043 19.3905 30.9997V24.9211C19.3905 22.712 17.5996 20.9211 15.3905 20.9211H9C7.89543 20.9211 7 20.0257 7 18.9211V18.356C7 17.7749 7.25089 17.2233 7.69314 16.8463Z" fill="white"/>
</svg>
